<svg width="129" height="109" viewBox="0 0 129 109" fill="none" xmlns="http://www.w3.org/2000/svg">
<path fill-rule="evenodd" clip-rule="evenodd" d="M74.5 109C104.6 109 129 84.5995 129 54.5C129 24.4005 104.6 0 74.5 0C49.0355 0 27.6501 17.4642 21.6676 41.0685C21.1177 41.0231 20.5616 41 20 41C8.9543 41 0 49.9543 0 61C0 72.0457 8.9543 81 20 81C22.2058 81 24.3282 80.6429 26.3125 79.9834C35.4589 97.2428 53.6064 109 74.5 109Z" fill="#79D0A3"/>
<path d="M40 61C40 72.0457 31.0457 81 20 81C8.95431 81 0 72.0457 0 61C0 49.9543 8.95431 41 20 41C31.0457 41 40 49.9543 40 61Z" fill="#C74F3C"/>
<path fill-rule="evenodd" clip-rule="evenodd" d="M26.3125 79.9834C22.2825 72.3788 20 63.7059 20 54.5C20 49.8649 20.5786 45.365 21.6676 41.0685C31.933 41.9159 40 50.5159 40 61C40 69.8399 34.2649 77.3403 26.3125 79.9834Z" fill="#F1C12D"/>
<path d="M82.9733 68.3507C83.0983 68.115 83.3122 67.939 83.5676 67.8619L110.068 59.8601C110.919 59.6031 111.037 58.4465 110.255 58.0233L52.1275 26.5597C51.3488 26.1382 50.4469 26.8621 50.6899 27.7136L68.8417 91.323C69.0888 92.1889 70.2648 92.3127 70.6868 91.5172L82.9733 68.3507Z" fill="#332392"/>
</svg>
